<mxfile host="app.diagrams.net" modified="2023-05-15T11:58:44.828Z" agent="Mozilla/5.0 (Macintosh; Intel Mac OS X 10_15_7) AppleWebKit/537.36 (KHTML, like Gecko) Chrome/113.0.0.0 Safari/537.36" etag="Lya9hxNTuNCsPqk2Ov1Q" version="21.2.9" type="device">
  <diagram name="Page-1" id="bMq-flaikTQhLTW3FIld">
    <mxGraphModel dx="1434" dy="795" grid="1" gridSize="10" guides="1" tooltips="1" connect="1" arrows="1" fold="1" page="1" pageScale="1" pageWidth="827" pageHeight="1169" math="0" shadow="0">
      <root>
        <mxCell id="0" />
        <mxCell id="1" parent="0" />
        <mxCell id="ZdhACyOKWBQS82JLlqKs-26" value="Angajatul este pe pagina de profil" style="rounded=1;whiteSpace=wrap;html=1;" vertex="1" parent="1">
          <mxGeometry x="370" y="20" width="120" height="60" as="geometry" />
        </mxCell>
        <mxCell id="ZdhACyOKWBQS82JLlqKs-27" value="Mai poate chelnerul accepta comenzi?" style="rhombus;whiteSpace=wrap;html=1;" vertex="1" parent="1">
          <mxGeometry x="355" y="340" width="150" height="80" as="geometry" />
        </mxCell>
        <mxCell id="ZdhACyOKWBQS82JLlqKs-28" value="Angajatul trebuie sa mai livreze comenzi" style="rounded=1;whiteSpace=wrap;html=1;" vertex="1" parent="1">
          <mxGeometry x="180" y="160" width="120" height="60" as="geometry" />
        </mxCell>
        <mxCell id="ZdhACyOKWBQS82JLlqKs-29" value="Accepta comanda" style="rounded=1;whiteSpace=wrap;html=1;" vertex="1" parent="1">
          <mxGeometry x="370" y="500" width="120" height="60" as="geometry" />
        </mxCell>
        <mxCell id="ZdhACyOKWBQS82JLlqKs-35" value="NU" style="endArrow=classic;html=1;rounded=0;entryX=1;entryY=0.5;entryDx=0;entryDy=0;exitX=0;exitY=0.5;exitDx=0;exitDy=0;" edge="1" parent="1" source="ZdhACyOKWBQS82JLlqKs-27" target="ZdhACyOKWBQS82JLlqKs-80">
          <mxGeometry x="0.0133" width="50" height="50" relative="1" as="geometry">
            <mxPoint x="460" y="560" as="sourcePoint" />
            <mxPoint x="510" y="510" as="targetPoint" />
            <mxPoint as="offset" />
          </mxGeometry>
        </mxCell>
        <mxCell id="ZdhACyOKWBQS82JLlqKs-36" value="" style="endArrow=classic;html=1;rounded=0;entryX=0;entryY=0.5;entryDx=0;entryDy=0;exitX=0.5;exitY=0;exitDx=0;exitDy=0;" edge="1" parent="1" source="ZdhACyOKWBQS82JLlqKs-28" target="ZdhACyOKWBQS82JLlqKs-26">
          <mxGeometry width="50" height="50" relative="1" as="geometry">
            <mxPoint x="400" y="180" as="sourcePoint" />
            <mxPoint x="330" y="180" as="targetPoint" />
            <Array as="points">
              <mxPoint x="240" y="50" />
            </Array>
          </mxGeometry>
        </mxCell>
        <mxCell id="ZdhACyOKWBQS82JLlqKs-38" value="DA" style="endArrow=classic;html=1;rounded=0;entryX=0.5;entryY=0;entryDx=0;entryDy=0;exitX=0.5;exitY=1;exitDx=0;exitDy=0;" edge="1" parent="1" source="ZdhACyOKWBQS82JLlqKs-27" target="ZdhACyOKWBQS82JLlqKs-29">
          <mxGeometry width="50" height="50" relative="1" as="geometry">
            <mxPoint x="440" y="300" as="sourcePoint" />
            <mxPoint x="440" y="350" as="targetPoint" />
            <mxPoint as="offset" />
          </mxGeometry>
        </mxCell>
        <mxCell id="ZdhACyOKWBQS82JLlqKs-39" value="" style="endArrow=classic;html=1;rounded=0;entryX=0.5;entryY=0;entryDx=0;entryDy=0;exitX=0.5;exitY=1;exitDx=0;exitDy=0;" edge="1" parent="1" source="ZdhACyOKWBQS82JLlqKs-29">
          <mxGeometry width="50" height="50" relative="1" as="geometry">
            <mxPoint x="450" y="310" as="sourcePoint" />
            <mxPoint x="430" y="620" as="targetPoint" />
          </mxGeometry>
        </mxCell>
        <mxCell id="ZdhACyOKWBQS82JLlqKs-47" value="Comanda este trimisa la bucatar si acesta confirma ca e gata" style="rounded=1;whiteSpace=wrap;html=1;" vertex="1" parent="1">
          <mxGeometry x="370" y="620" width="120" height="60" as="geometry" />
        </mxCell>
        <mxCell id="ZdhACyOKWBQS82JLlqKs-48" value="" style="endArrow=classic;html=1;rounded=0;entryX=0.5;entryY=0;entryDx=0;entryDy=0;exitX=0.5;exitY=1;exitDx=0;exitDy=0;" edge="1" parent="1">
          <mxGeometry width="50" height="50" relative="1" as="geometry">
            <mxPoint x="429.5" y="680" as="sourcePoint" />
            <mxPoint x="429.5" y="740" as="targetPoint" />
          </mxGeometry>
        </mxCell>
        <mxCell id="ZdhACyOKWBQS82JLlqKs-66" value="Intervine un motiv pentru anularea comenzii?" style="rhombus;whiteSpace=wrap;html=1;" vertex="1" parent="1">
          <mxGeometry x="355" y="200" width="150" height="80" as="geometry" />
        </mxCell>
        <mxCell id="ZdhACyOKWBQS82JLlqKs-67" value="" style="endArrow=classic;html=1;rounded=0;entryX=0.5;entryY=0;entryDx=0;entryDy=0;exitX=0.5;exitY=1;exitDx=0;exitDy=0;" edge="1" parent="1" source="ZdhACyOKWBQS82JLlqKs-66" target="ZdhACyOKWBQS82JLlqKs-27">
          <mxGeometry width="50" height="50" relative="1" as="geometry">
            <mxPoint x="440" y="90" as="sourcePoint" />
            <mxPoint x="440" y="210" as="targetPoint" />
          </mxGeometry>
        </mxCell>
        <mxCell id="ZdhACyOKWBQS82JLlqKs-68" value="NU" style="edgeLabel;html=1;align=center;verticalAlign=middle;resizable=0;points=[];" vertex="1" connectable="0" parent="ZdhACyOKWBQS82JLlqKs-67">
          <mxGeometry x="-0.325" y="1" relative="1" as="geometry">
            <mxPoint as="offset" />
          </mxGeometry>
        </mxCell>
        <mxCell id="ZdhACyOKWBQS82JLlqKs-69" value="" style="endArrow=classic;html=1;rounded=0;entryX=1;entryY=0.5;entryDx=0;entryDy=0;exitX=0.5;exitY=0;exitDx=0;exitDy=0;" edge="1" parent="1" source="ZdhACyOKWBQS82JLlqKs-70" target="ZdhACyOKWBQS82JLlqKs-26">
          <mxGeometry width="50" height="50" relative="1" as="geometry">
            <mxPoint x="620" y="130" as="sourcePoint" />
            <mxPoint x="450" y="220" as="targetPoint" />
            <Array as="points">
              <mxPoint x="610" y="50" />
            </Array>
          </mxGeometry>
        </mxCell>
        <mxCell id="ZdhACyOKWBQS82JLlqKs-70" value="Comanda este anulata" style="rounded=1;whiteSpace=wrap;html=1;" vertex="1" parent="1">
          <mxGeometry x="550" y="110" width="120" height="60" as="geometry" />
        </mxCell>
        <mxCell id="ZdhACyOKWBQS82JLlqKs-71" value="DA" style="endArrow=classic;html=1;rounded=0;entryX=0.5;entryY=1;entryDx=0;entryDy=0;exitX=1;exitY=0.5;exitDx=0;exitDy=0;" edge="1" parent="1" source="ZdhACyOKWBQS82JLlqKs-66" target="ZdhACyOKWBQS82JLlqKs-70">
          <mxGeometry width="50" height="50" relative="1" as="geometry">
            <mxPoint x="460" y="110" as="sourcePoint" />
            <mxPoint x="460" y="230" as="targetPoint" />
            <Array as="points">
              <mxPoint x="610" y="240" />
            </Array>
          </mxGeometry>
        </mxCell>
        <mxCell id="ZdhACyOKWBQS82JLlqKs-72" value="Intervine un motiv pentru anularea comenzii?" style="rhombus;whiteSpace=wrap;html=1;" vertex="1" parent="1">
          <mxGeometry x="350" y="740" width="150" height="80" as="geometry" />
        </mxCell>
        <mxCell id="ZdhACyOKWBQS82JLlqKs-73" value="" style="endArrow=classic;html=1;rounded=0;entryX=0.5;entryY=0;entryDx=0;entryDy=0;exitX=0.5;exitY=1;exitDx=0;exitDy=0;" edge="1" parent="1">
          <mxGeometry width="50" height="50" relative="1" as="geometry">
            <mxPoint x="424.5" y="820" as="sourcePoint" />
            <mxPoint x="424.5" y="880" as="targetPoint" />
          </mxGeometry>
        </mxCell>
        <mxCell id="ZdhACyOKWBQS82JLlqKs-74" value="NU" style="edgeLabel;html=1;align=center;verticalAlign=middle;resizable=0;points=[];" vertex="1" connectable="0" parent="ZdhACyOKWBQS82JLlqKs-73">
          <mxGeometry x="-0.3333" y="3" relative="1" as="geometry">
            <mxPoint as="offset" />
          </mxGeometry>
        </mxCell>
        <mxCell id="ZdhACyOKWBQS82JLlqKs-75" value="Comanda este livrata si dupa confirmata" style="rounded=1;whiteSpace=wrap;html=1;" vertex="1" parent="1">
          <mxGeometry x="365" y="880" width="120" height="60" as="geometry" />
        </mxCell>
        <mxCell id="ZdhACyOKWBQS82JLlqKs-76" value="DA" style="endArrow=classic;html=1;rounded=0;exitX=0;exitY=0.5;exitDx=0;exitDy=0;entryX=0;entryY=0.75;entryDx=0;entryDy=0;" edge="1" parent="1" source="ZdhACyOKWBQS82JLlqKs-72" target="ZdhACyOKWBQS82JLlqKs-26">
          <mxGeometry width="50" height="50" relative="1" as="geometry">
            <mxPoint x="440" y="430" as="sourcePoint" />
            <mxPoint x="120" y="660" as="targetPoint" />
            <Array as="points">
              <mxPoint x="120" y="780" />
              <mxPoint x="120" y="65" />
            </Array>
          </mxGeometry>
        </mxCell>
        <mxCell id="ZdhACyOKWBQS82JLlqKs-77" value="Primeste o noua comanda" style="rounded=1;whiteSpace=wrap;html=1;" vertex="1" parent="1">
          <mxGeometry x="370" y="110" width="120" height="60" as="geometry" />
        </mxCell>
        <mxCell id="ZdhACyOKWBQS82JLlqKs-78" value="" style="endArrow=classic;html=1;rounded=0;exitX=0.5;exitY=1;exitDx=0;exitDy=0;" edge="1" parent="1" source="ZdhACyOKWBQS82JLlqKs-26">
          <mxGeometry width="50" height="50" relative="1" as="geometry">
            <mxPoint x="390" y="310" as="sourcePoint" />
            <mxPoint x="430" y="110" as="targetPoint" />
          </mxGeometry>
        </mxCell>
        <mxCell id="ZdhACyOKWBQS82JLlqKs-79" value="" style="endArrow=classic;html=1;rounded=0;exitX=0.5;exitY=1;exitDx=0;exitDy=0;entryX=0.5;entryY=0;entryDx=0;entryDy=0;" edge="1" parent="1" source="ZdhACyOKWBQS82JLlqKs-77" target="ZdhACyOKWBQS82JLlqKs-66">
          <mxGeometry width="50" height="50" relative="1" as="geometry">
            <mxPoint x="440" y="90" as="sourcePoint" />
            <mxPoint x="440" y="120" as="targetPoint" />
          </mxGeometry>
        </mxCell>
        <mxCell id="ZdhACyOKWBQS82JLlqKs-80" value="Accepta alt chelner?" style="rhombus;whiteSpace=wrap;html=1;" vertex="1" parent="1">
          <mxGeometry x="200" y="340" width="80" height="80" as="geometry" />
        </mxCell>
        <mxCell id="ZdhACyOKWBQS82JLlqKs-81" value="NU" style="endArrow=classic;html=1;rounded=0;entryX=0.5;entryY=1;entryDx=0;entryDy=0;exitX=0.5;exitY=0;exitDx=0;exitDy=0;" edge="1" parent="1" source="ZdhACyOKWBQS82JLlqKs-80" target="ZdhACyOKWBQS82JLlqKs-28">
          <mxGeometry width="50" height="50" relative="1" as="geometry">
            <mxPoint x="365" y="390" as="sourcePoint" />
            <mxPoint x="280" y="200" as="targetPoint" />
          </mxGeometry>
        </mxCell>
        <mxCell id="ZdhACyOKWBQS82JLlqKs-82" value="DA" style="endArrow=classic;html=1;rounded=0;entryX=0;entryY=0.5;entryDx=0;entryDy=0;exitX=0.5;exitY=1;exitDx=0;exitDy=0;" edge="1" parent="1" source="ZdhACyOKWBQS82JLlqKs-80" target="ZdhACyOKWBQS82JLlqKs-29">
          <mxGeometry width="50" height="50" relative="1" as="geometry">
            <mxPoint x="375" y="400" as="sourcePoint" />
            <mxPoint x="290" y="210" as="targetPoint" />
            <Array as="points">
              <mxPoint x="240" y="530" />
            </Array>
            <mxPoint as="offset" />
          </mxGeometry>
        </mxCell>
      </root>
    </mxGraphModel>
  </diagram>
</mxfile>
